<svg id="b4b3730c-7cbd-4675-8997-b74e901112ab" data-name="Réteg 1" xmlns="http://www.w3.org/2000/svg" viewBox="0 0 70 31">
  <g>
    <path d="M54,30.4a26.8,26.8,0,0,0-38.2,0L.2,14.7A47.7,47.7,0,0,1,16.4,4a49.3,49.3,0,0,1,37,0A49.1,49.1,0,0,1,69.7,14.7Z" style="fill: #00dbdc"/>
    <g>
      <g>
        <path d="M15.9,13.1l2.8-1.2a2.3,2.3,0,0,1,1.8-.1,1,1,0,0,1,.7.7h0a1.3,1.3,0,0,1-.3,1.6,1.6,1.6,0,0,1,1.7.9h0c.4,1-.1,1.9-1.5,2.5l-2.9,1.2Zm3.4,1.2c.5-.2.7-.5.5-.8h0c-.1-.3-.4-.4-.9-.2l-1,.4.4,1Zm1.1,2c.5-.2.7-.5.6-.8h-.1c-.1-.3-.4-.4-.9-.2l-1.2.5.4,1Z" style="fill: #f8ff81"/>
        <path d="M46.6,15.9l1.3-.8a2.6,2.6,0,0,0,1.5,1.4c.5.2.8.1.8-.1h0c.1-.3,0-.5-.7-.9S47.6,14,48,12.9h0a2.1,2.1,0,0,1,2.9-1A4.5,4.5,0,0,1,53,13.5l-1.2.8a3.1,3.1,0,0,0-1.4-1.2c-.4-.1-.6,0-.7.2h0c-.1.3,0,.5.7.9s1.9,1.5,1.5,2.6h0c-.4,1.2-1.6,1.5-3,1A4,4,0,0,1,46.6,15.9Z" style="fill: #f8ff81"/>
        <path d="M34.1,8.8H32.2V7.3h5.4V8.8H35.7v8.1H34.1Z" style="fill: #f8ff81"/>
      </g>
      <rect x="41" y="11.6" width="2.2" height="2.23" transform="translate(-0.8 22.2) rotate(-29.3)" style="fill: #f8ff81"/>
      <rect x="26.4" y="11.6" width="2.2" height="2.23" transform="translate(2.9 30.4) rotate(-60.7)" style="fill: #f8ff81"/>
    </g>
  </g>
</svg>
