<svg id="b7c468dc-fbab-4cea-b4ba-61b8f33d53dd" data-name="Réteg 1" xmlns="http://www.w3.org/2000/svg" viewBox="0 0 291 50">
  <g>
    <g>
      <path d="M50.4,25a25,25,0,1,1-25-25A25,25,0,0,1,50.4,25Z" style="fill: #00dbdc"/>
      <path d="M42.6,29.1H34.8a7.5,7.5,0,0,1-5.7-3.3c-1.7-2.5-1.6-5.9.2-10.1l1.8.8c-1.5,3.5-1.6,6.3-.3,8.2a5.6,5.6,0,0,0,4,2.4h7.8Z" style="fill: #f8ff81"/>
      <path d="M16.8,29.1H8.1v-2h6.7a13.2,13.2,0,0,1,4.9-8.6c4.8-4,10.6-3.6,14.6-3l-.3,2c-3.6-.6-8.9-1-13,2.5s-4.3,8-4.3,8Z" style="fill: #f8ff81"/>
    </g>
    <g>
      <path d="M110.4,25a25,25,0,1,1-25-25A25,25,0,0,1,110.4,25Z" style="fill: #00dbdc"/>
      <path d="M83.2,41.3l-.6-1.1c-2-3.4-3-11.9-3-18A17.2,17.2,0,0,1,84.8,9.5l.6-.6.7.6a17.2,17.2,0,0,1,5.2,12.7c0,6.1-1.1,14.6-3.1,18l-.6,1.1-2.2-1.9Zm2.2-4.5L87,38.1c1.5-3.6,2.3-10.6,2.3-15.9a15.3,15.3,0,0,0-3.9-10.5,15.9,15.9,0,0,0-3.8,10.5c0,5.3.8,12.3,2.2,15.9Z" style="fill: #f8ff81"/>
    </g>
    <g>
      <path d="M170.5,25a25,25,0,1,1-25-25A25,25,0,0,1,170.5,25Z" style="fill: #00dbdc"/>
      <path d="M159.7,35.5H134.1v-22h13.7V23.7l7.1,1.2a7.2,7.2,0,0,1,5.8,7,6.6,6.6,0,0,1-.7,3Zm-23.6-2h22.3a4.5,4.5,0,0,0,.3-1.6,5.2,5.2,0,0,0-4.1-5l-8.8-1.5V15.5h-9.7Z" style="fill: #f8ff81"/>
      <rect x="140.9" y="18.6" width="5.9" height="2" style="fill: #f8ff81"/>
      <rect x="135.1" y="32" width="24.4" height="2" style="fill: #f8ff81"/>
    </g>
    <g>
      <path d="M230.5,25a25,25,0,1,1-25-25A25,25,0,0,1,230.5,25Z" style="fill: #00dbdc"/>
      <g>
        <polygon points="221.6 27.5 198.6 27.5 189.5 18.4 190.9 17 199.4 25.5 221.6 25.5 221.6 27.5" style="fill: #f8ff81"/>
        <rect x="193.1" y="29.3" width="7.5" height="2" transform="translate(90.1 198.4) rotate(-66.3)" style="fill: #f8ff81"/>
        <rect x="214.3" y="26.3" width="2" height="7.24" transform="translate(1.6 69.4) rotate(-18.4)" style="fill: #f8ff81"/>
      </g>
      <g>
        <rect x="200.5" y="9.9" width="4.4" height="2" transform="translate(33.1 122.5) rotate(-36.4)" style="fill: #f8ff81"/>
        <rect x="205.4" y="13.8" width="4.4" height="2" transform="translate(110.9 199.1) rotate(-66.4)" style="fill: #f8ff81"/>
        <rect x="212.8" y="13.5" width="2" height="4.43" transform="translate(-0.4 24.1) rotate(-6.4)" style="fill: #f8ff81"/>
      </g>
    </g>
    <g>
      <path d="M290.6,25a25,25,0,1,1-25-25A25,25,0,0,1,290.6,25Z" style="fill: #00dbdc"/>
      <path d="M275.3,37.6H255.8V11.5h19.5Zm-17.5-2h15.5V13.5H257.8Z" style="fill: #f8ff81"/>
      <path d="M265.6,21.7a3.2,3.2,0,1,1,3.1-3.2A3.1,3.1,0,0,1,265.6,21.7Zm0-4.3a1.1,1.1,0,0,0-1.1,1.1,1.1,1.1,0,1,0,2.2,0A1.1,1.1,0,0,0,265.6,17.4Z" style="fill: #f8ff81"/>
      <path d="M265.6,34.7a6.3,6.3,0,1,1,6.2-6.3A6.3,6.3,0,0,1,265.6,34.7Zm0-10.5a4.2,4.2,0,0,0-4.2,4.2,4.2,4.2,0,1,0,8.4,0A4.2,4.2,0,0,0,265.6,24.2Z" style="fill: #f8ff81"/>
    </g>
  </g>
</svg>
