<svg id="ace20ff4-8017-42d8-94b4-f59adf673558" data-name="Réteg 1" xmlns="http://www.w3.org/2000/svg" viewBox="0 0 133 58">
  <g>
    <rect x="62.2" y="30.7" width="70.5" height="6" style="fill: #00dbdc"/>
    <path d="M47.1,52H.3V48.9c0-7.2,5.9-23.1,23.4-23.1S47.1,41.7,47.1,48.9ZM6.9,45.8H40.6C39.3,40.1,34.5,32,23.7,32S8.2,40.1,6.9,45.8Z" style="fill: #00b033"/>
    <rect x="0.4" y="51.7" width="46.7" height="6" style="fill: #00dbdc"/>
    <rect x="20.6" y="17.6" width="6.2" height="19.83" style="fill: #976b00"/>
    <polygon points="23.8 21.5 12.2 12.6 15.9 7.7 23.7 13.6 31.1 7.7 35 12.5 23.8 21.5" style="fill: #00b033"/>
    <polygon points="23.8 14 12.2 5.2 15.9 0.3 23.7 6.2 31.1 0.3 35 5.1 23.8 14" style="fill: #00b033"/>
  </g>
</svg>
